<?xml version="1.0" encoding="UTF-8" standalone="no"?>
<!DOCTYPE svg PUBLIC "-//W3C//DTD SVG 1.1//EN"
 "http://www.w3.org/Graphics/SVG/1.1/DTD/svg11.dtd">
<!-- Generated by graphviz version 2.26.0 (20091210.2329)
 -->
<!-- Title: snakemake_dag Pages: 1 -->
<svg width="742pt" height="116pt"
 viewBox="0.00 0.00 742.00 116.00" xmlns="http://www.w3.org/2000/svg" xmlns:xlink="http://www.w3.org/1999/xlink">
<g id="graph1" class="graph" transform="scale(1 1) rotate(0) translate(4 112)">
<title>snakemake_dag</title>
<polygon fill="white" stroke="white" points="-4,5 -4,-112 739,-112 739,5 -4,5"/>
<!-- 0 -->
<g id="node1" class="node"><title>0</title>
<polyline fill="none" stroke="#d85656" stroke-width="2" points="64,-108 12,-108 "/>
<path fill="none" stroke="#d85656" stroke-width="2" d="M12,-108C6,-108 2.96059e-14,-102 2.36848e-14,-96"/>
<polyline fill="none" stroke="#d85656" stroke-width="2" points="2.36848e-14,-96 1.18424e-14,-84 "/>
<path fill="none" stroke="#d85656" stroke-width="2" d="M1.18424e-14,-84C5.92119e-15,-78 6,-72 12,-72"/>
<polyline fill="none" stroke="#d85656" stroke-width="2" points="12,-72 64,-72 "/>
<path fill="none" stroke="#d85656" stroke-width="2" d="M64,-72C70,-72 76,-78 76,-84"/>
<polyline fill="none" stroke="#d85656" stroke-width="2" points="76,-84 76,-96 "/>
<path fill="none" stroke="#d85656" stroke-width="2" d="M76,-96C76,-102 70,-108 64,-108"/>
<text text-anchor="middle" x="38" y="-94" font-family="sans" font-size="10.00">rarefaction</text>
<text text-anchor="middle" x="38" y="-81" font-family="sans" font-size="10.00">sample: A070</text>
</g>
<!-- 8 -->
<g id="node9" class="node"><title>8</title>
<polyline fill="none" stroke="#59d856" stroke-width="2" points="382,-36 352,-36 "/>
<path fill="none" stroke="#59d856" stroke-width="2" d="M352,-36C346,-36 340,-30 340,-24"/>
<polyline fill="none" stroke="#59d856" stroke-width="2" points="340,-24 340,-12 "/>
<path fill="none" stroke="#59d856" stroke-width="2" d="M340,-12C340,-6 346,-1.61846e-14 352,-1.46056e-14"/>
<polyline fill="none" stroke="#59d856" stroke-width="2" points="352,-1.46056e-14 382,-6.71068e-15 "/>
<path fill="none" stroke="#59d856" stroke-width="2" d="M382,-6.71068e-15C388,-5.1317e-15 394,-6 394,-12"/>
<polyline fill="none" stroke="#59d856" stroke-width="2" points="394,-12 394,-24 "/>
<path fill="none" stroke="#59d856" stroke-width="2" d="M394,-24C394,-30 388,-36 382,-36"/>
<text text-anchor="middle" x="367" y="-15.5" font-family="sans" font-size="10.00">all</text>
</g>
<!-- 0&#45;&gt;8 -->
<g id="edge2" class="edge"><title>0&#45;&gt;8</title>
<path fill="none" stroke="grey" stroke-width="2" d="M76.0288,-74.7903C79.0433,-73.7828 82.0588,-72.8377 85,-72 171.069,-47.4857 275.11,-30.7969 329.586,-23.0142"/>
<polygon fill="grey" stroke="grey" points="330.386,-26.4362 339.8,-21.5767 329.41,-19.5045 330.386,-26.4362"/>
</g>
<!-- 1 -->
<g id="node2" class="node"><title>1</title>
<polyline fill="none" stroke="#d85656" stroke-width="2" points="158,-108 106,-108 "/>
<path fill="none" stroke="#d85656" stroke-width="2" d="M106,-108C100,-108 94,-102 94,-96"/>
<polyline fill="none" stroke="#d85656" stroke-width="2" points="94,-96 94,-84 "/>
<path fill="none" stroke="#d85656" stroke-width="2" d="M94,-84C94,-78 100,-72 106,-72"/>
<polyline fill="none" stroke="#d85656" stroke-width="2" points="106,-72 158,-72 "/>
<path fill="none" stroke="#d85656" stroke-width="2" d="M158,-72C164,-72 170,-78 170,-84"/>
<polyline fill="none" stroke="#d85656" stroke-width="2" points="170,-84 170,-96 "/>
<path fill="none" stroke="#d85656" stroke-width="2" d="M170,-96C170,-102 164,-108 158,-108"/>
<text text-anchor="middle" x="132" y="-94" font-family="sans" font-size="10.00">rarefaction</text>
<text text-anchor="middle" x="132" y="-81" font-family="sans" font-size="10.00">sample: S040</text>
</g>
<!-- 1&#45;&gt;8 -->
<g id="edge4" class="edge"><title>1&#45;&gt;8</title>
<path fill="none" stroke="grey" stroke-width="2" d="M170.12,-75.0859C173.114,-74.0111 176.1,-72.9699 179,-72 230.663,-54.7229 291.401,-37.8945 329.553,-27.7366"/>
<polygon fill="grey" stroke="grey" points="330.917,-30.9961 339.689,-25.0536 329.126,-24.2291 330.917,-30.9961"/>
</g>
<!-- 2 -->
<g id="node3" class="node"><title>2</title>
<polyline fill="none" stroke="#d85656" stroke-width="2" points="252,-108 200,-108 "/>
<path fill="none" stroke="#d85656" stroke-width="2" d="M200,-108C194,-108 188,-102 188,-96"/>
<polyline fill="none" stroke="#d85656" stroke-width="2" points="188,-96 188,-84 "/>
<path fill="none" stroke="#d85656" stroke-width="2" d="M188,-84C188,-78 194,-72 200,-72"/>
<polyline fill="none" stroke="#d85656" stroke-width="2" points="200,-72 252,-72 "/>
<path fill="none" stroke="#d85656" stroke-width="2" d="M252,-72C258,-72 264,-78 264,-84"/>
<polyline fill="none" stroke="#d85656" stroke-width="2" points="264,-84 264,-96 "/>
<path fill="none" stroke="#d85656" stroke-width="2" d="M264,-96C264,-102 258,-108 252,-108"/>
<text text-anchor="middle" x="226" y="-94" font-family="sans" font-size="10.00">rarefaction</text>
<text text-anchor="middle" x="226" y="-81" font-family="sans" font-size="10.00">sample: V053</text>
</g>
<!-- 2&#45;&gt;8 -->
<g id="edge6" class="edge"><title>2&#45;&gt;8</title>
<path fill="none" stroke="grey" stroke-width="2" d="M261.58,-71.8314C282.758,-61.0173 309.56,-47.3312 330.839,-36.4652"/>
<polygon fill="grey" stroke="grey" points="332.572,-39.51 339.887,-31.845 329.389,-33.2757 332.572,-39.51"/>
</g>
<!-- 3 -->
<g id="node4" class="node"><title>3</title>
<polyline fill="none" stroke="#d85656" stroke-width="2" points="346,-108 294,-108 "/>
<path fill="none" stroke="#d85656" stroke-width="2" d="M294,-108C288,-108 282,-102 282,-96"/>
<polyline fill="none" stroke="#d85656" stroke-width="2" points="282,-96 282,-84 "/>
<path fill="none" stroke="#d85656" stroke-width="2" d="M282,-84C282,-78 288,-72 294,-72"/>
<polyline fill="none" stroke="#d85656" stroke-width="2" points="294,-72 346,-72 "/>
<path fill="none" stroke="#d85656" stroke-width="2" d="M346,-72C352,-72 358,-78 358,-84"/>
<polyline fill="none" stroke="#d85656" stroke-width="2" points="358,-84 358,-96 "/>
<path fill="none" stroke="#d85656" stroke-width="2" d="M358,-96C358,-102 352,-108 346,-108"/>
<text text-anchor="middle" x="320" y="-94" font-family="sans" font-size="10.00">rarefaction</text>
<text text-anchor="middle" x="320" y="-81" font-family="sans" font-size="10.00">sample: N013</text>
</g>
<!-- 3&#45;&gt;8 -->
<g id="edge8" class="edge"><title>3&#45;&gt;8</title>
<path fill="none" stroke="grey" stroke-width="2" d="M331.86,-71.8314C337.163,-63.7079 343.524,-53.9637 349.367,-45.0118"/>
<polygon fill="grey" stroke="grey" points="352.445,-46.7003 354.98,-36.4133 346.583,-42.8739 352.445,-46.7003"/>
</g>
<!-- 4 -->
<g id="node5" class="node"><title>4</title>
<polyline fill="none" stroke="#d85656" stroke-width="2" points="440,-108 388,-108 "/>
<path fill="none" stroke="#d85656" stroke-width="2" d="M388,-108C382,-108 376,-102 376,-96"/>
<polyline fill="none" stroke="#d85656" stroke-width="2" points="376,-96 376,-84 "/>
<path fill="none" stroke="#d85656" stroke-width="2" d="M376,-84C376,-78 382,-72 388,-72"/>
<polyline fill="none" stroke="#d85656" stroke-width="2" points="388,-72 440,-72 "/>
<path fill="none" stroke="#d85656" stroke-width="2" d="M440,-72C446,-72 452,-78 452,-84"/>
<polyline fill="none" stroke="#d85656" stroke-width="2" points="452,-84 452,-96 "/>
<path fill="none" stroke="#d85656" stroke-width="2" d="M452,-96C452,-102 446,-108 440,-108"/>
<text text-anchor="middle" x="414" y="-94" font-family="sans" font-size="10.00">rarefaction</text>
<text text-anchor="middle" x="414" y="-81" font-family="sans" font-size="10.00">sample: V046</text>
</g>
<!-- 4&#45;&gt;8 -->
<g id="edge16" class="edge"><title>4&#45;&gt;8</title>
<path fill="none" stroke="grey" stroke-width="2" d="M402.14,-71.8314C396.837,-63.7079 390.476,-53.9637 384.633,-45.0118"/>
<polygon fill="grey" stroke="grey" points="387.417,-42.8739 379.02,-36.4133 381.555,-46.7003 387.417,-42.8739"/>
</g>
<!-- 5 -->
<g id="node6" class="node"><title>5</title>
<polyline fill="none" stroke="#d85656" stroke-width="2" points="534,-108 482,-108 "/>
<path fill="none" stroke="#d85656" stroke-width="2" d="M482,-108C476,-108 470,-102 470,-96"/>
<polyline fill="none" stroke="#d85656" stroke-width="2" points="470,-96 470,-84 "/>
<path fill="none" stroke="#d85656" stroke-width="2" d="M470,-84C470,-78 476,-72 482,-72"/>
<polyline fill="none" stroke="#d85656" stroke-width="2" points="482,-72 534,-72 "/>
<path fill="none" stroke="#d85656" stroke-width="2" d="M534,-72C540,-72 546,-78 546,-84"/>
<polyline fill="none" stroke="#d85656" stroke-width="2" points="546,-84 546,-96 "/>
<path fill="none" stroke="#d85656" stroke-width="2" d="M546,-96C546,-102 540,-108 534,-108"/>
<text text-anchor="middle" x="508" y="-94" font-family="sans" font-size="10.00">rarefaction</text>
<text text-anchor="middle" x="508" y="-81" font-family="sans" font-size="10.00">sample: N003</text>
</g>
<!-- 5&#45;&gt;8 -->
<g id="edge12" class="edge"><title>5&#45;&gt;8</title>
<path fill="none" stroke="grey" stroke-width="2" d="M472.42,-71.8314C451.242,-61.0173 424.44,-47.3312 403.161,-36.4652"/>
<polygon fill="grey" stroke="grey" points="404.611,-33.2757 394.113,-31.845 401.428,-39.51 404.611,-33.2757"/>
</g>
<!-- 6 -->
<g id="node7" class="node"><title>6</title>
<polyline fill="none" stroke="#d85656" stroke-width="2" points="628,-108 576,-108 "/>
<path fill="none" stroke="#d85656" stroke-width="2" d="M576,-108C570,-108 564,-102 564,-96"/>
<polyline fill="none" stroke="#d85656" stroke-width="2" points="564,-96 564,-84 "/>
<path fill="none" stroke="#d85656" stroke-width="2" d="M564,-84C564,-78 570,-72 576,-72"/>
<polyline fill="none" stroke="#d85656" stroke-width="2" points="576,-72 628,-72 "/>
<path fill="none" stroke="#d85656" stroke-width="2" d="M628,-72C634,-72 640,-78 640,-84"/>
<polyline fill="none" stroke="#d85656" stroke-width="2" points="640,-84 640,-96 "/>
<path fill="none" stroke="#d85656" stroke-width="2" d="M640,-96C640,-102 634,-108 628,-108"/>
<text text-anchor="middle" x="602" y="-94" font-family="sans" font-size="10.00">rarefaction</text>
<text text-anchor="middle" x="602" y="-81" font-family="sans" font-size="10.00">sample: S034</text>
</g>
<!-- 6&#45;&gt;8 -->
<g id="edge10" class="edge"><title>6&#45;&gt;8</title>
<path fill="none" stroke="grey" stroke-width="2" d="M563.88,-75.0859C560.886,-74.0111 557.9,-72.9699 555,-72 503.337,-54.7229 442.599,-37.8945 404.447,-27.7366"/>
<polygon fill="grey" stroke="grey" points="404.874,-24.2291 394.311,-25.0536 403.083,-30.9961 404.874,-24.2291"/>
</g>
<!-- 7 -->
<g id="node8" class="node"><title>7</title>
<polyline fill="none" stroke="#d85656" stroke-width="2" points="722,-108 670,-108 "/>
<path fill="none" stroke="#d85656" stroke-width="2" d="M670,-108C664,-108 658,-102 658,-96"/>
<polyline fill="none" stroke="#d85656" stroke-width="2" points="658,-96 658,-84 "/>
<path fill="none" stroke="#d85656" stroke-width="2" d="M658,-84C658,-78 664,-72 670,-72"/>
<polyline fill="none" stroke="#d85656" stroke-width="2" points="670,-72 722,-72 "/>
<path fill="none" stroke="#d85656" stroke-width="2" d="M722,-72C728,-72 734,-78 734,-84"/>
<polyline fill="none" stroke="#d85656" stroke-width="2" points="734,-84 734,-96 "/>
<path fill="none" stroke="#d85656" stroke-width="2" d="M734,-96C734,-102 728,-108 722,-108"/>
<text text-anchor="middle" x="696" y="-94" font-family="sans" font-size="10.00">rarefaction</text>
<text text-anchor="middle" x="696" y="-81" font-family="sans" font-size="10.00">sample: A062</text>
</g>
<!-- 7&#45;&gt;8 -->
<g id="edge14" class="edge"><title>7&#45;&gt;8</title>
<path fill="none" stroke="grey" stroke-width="2" d="M657.971,-74.7903C654.957,-73.7828 651.941,-72.8377 649,-72 562.931,-47.4857 458.89,-30.7969 404.414,-23.0142"/>
<polygon fill="grey" stroke="grey" points="404.59,-19.5045 394.2,-21.5767 403.614,-26.4362 404.59,-19.5045"/>
</g>
</g>
</svg>
